<svg width="24" height="24" viewBox="0 0 24 24" fill="none" xmlns="http://www.w3.org/2000/svg">
<g id="storm 1" clip-path="url(#clip0_4320_4953)">
<g id="Thunder">
<path id="Vector" d="M19.9024 10.2969L9.93801 23.7969C9.89151 23.8599 9.83088 23.9111 9.761 23.9463C9.69112 23.9816 9.61394 24 9.53566 24C9.46975 24.0002 9.40448 23.9871 9.34376 23.9615C9.24043 23.9187 9.15448 23.8424 9.09967 23.7449C9.04486 23.6474 9.02438 23.5344 9.04151 23.4239L10.417 14.5H4.50001C4.40748 14.5 4.31678 14.4743 4.23797 14.4259C4.15917 14.3774 4.09537 14.308 4.05367 14.2254C4.01197 14.1428 3.994 14.0502 4.00176 13.958C4.00953 13.8658 4.04273 13.7776 4.09766 13.7032L14.062 0.203163C14.1284 0.113192 14.223 0.0480689 14.3308 0.0182004C14.4385 -0.0116681 14.5532 -0.00455846 14.6564 0.0383933C14.7596 0.081345 14.8455 0.15766 14.9003 0.255144C14.955 0.352627 14.9755 0.465654 14.9585 0.576163L13.583 9.50001H19.5C19.5925 9.50001 19.6833 9.52567 19.7621 9.57416C19.8409 9.62265 19.9047 9.69206 19.9464 9.77466C19.9881 9.85726 20.0061 9.94981 19.9983 10.042C19.9905 10.1342 19.9573 10.2225 19.9024 10.2969Z" fill="#CDCDCD"/>
</g>
</g>
<defs>
<clipPath id="clip0_4320_4953">
<rect width="24" height="24" fill="white"/>
</clipPath>
</defs>
</svg>
